<mxfile host="65bd71144e">
    <diagram id="lBm7FtkZm-2WKVroDp0Z" name="Page-1">
        <mxGraphModel dx="1216" dy="784" grid="1" gridSize="10" guides="1" tooltips="1" connect="1" arrows="1" fold="1" page="1" pageScale="1" pageWidth="827" pageHeight="1169" math="0" shadow="0">
            <root>
                <mxCell id="0"/>
                <mxCell id="1" parent="0"/>
                <mxCell id="5" value="Животные" style="swimlane;whiteSpace=wrap;html=1;" vertex="1" parent="1">
                    <mxGeometry x="340" y="130" width="90" height="90" as="geometry"/>
                </mxCell>
                <UserObject label="- name&amp;nbsp; &amp;nbsp; &amp;nbsp;&amp;nbsp;&lt;br&gt;- birthday&amp;nbsp; &amp;nbsp;&lt;br&gt;- command" placeholders="1" name="Variable" id="23">
                    <mxCell style="text;html=1;strokeColor=none;fillColor=none;align=center;verticalAlign=middle;whiteSpace=wrap;overflow=hidden;" vertex="1" parent="5">
                        <mxGeometry x="5" y="30" width="80" height="50" as="geometry"/>
                    </mxCell>
                </UserObject>
                <mxCell id="9" style="edgeStyle=elbowEdgeStyle;shape=flexArrow;elbow=vertical;html=1;strokeColor=default;strokeWidth=1;fillColor=none;entryX=0.25;entryY=1;entryDx=0;entryDy=0;" edge="1" parent="1" source="6" target="5">
                    <mxGeometry relative="1" as="geometry">
                        <mxPoint x="370" y="220" as="targetPoint"/>
                    </mxGeometry>
                </mxCell>
                <mxCell id="6" value="Домашние животные" style="swimlane;whiteSpace=wrap;html=1;startSize=30;" vertex="1" parent="1">
                    <mxGeometry x="190" y="280" width="90" height="90" as="geometry"/>
                </mxCell>
                <UserObject label="- name&amp;nbsp; &amp;nbsp; &amp;nbsp;&amp;nbsp;&lt;br&gt;- birthday&amp;nbsp; &amp;nbsp;&lt;br&gt;- command" placeholders="1" name="Variable" id="32">
                    <mxCell style="text;html=1;strokeColor=none;fillColor=none;align=center;verticalAlign=middle;whiteSpace=wrap;overflow=hidden;" vertex="1" parent="6">
                        <mxGeometry x="5" y="34" width="80" height="50" as="geometry"/>
                    </mxCell>
                </UserObject>
                <mxCell id="10" style="edgeStyle=elbowEdgeStyle;shape=flexArrow;elbow=vertical;html=1;strokeColor=default;strokeWidth=1;fillColor=none;" edge="1" parent="1" source="7">
                    <mxGeometry relative="1" as="geometry">
                        <mxPoint x="410" y="220" as="targetPoint"/>
                    </mxGeometry>
                </mxCell>
                <mxCell id="7" value="Вьючные животные" style="swimlane;whiteSpace=wrap;html=1;startSize=30;" vertex="1" parent="1">
                    <mxGeometry x="490" y="280" width="90" height="90" as="geometry"/>
                </mxCell>
                <UserObject label="- name&amp;nbsp; &amp;nbsp; &amp;nbsp;&amp;nbsp;&lt;br&gt;- birthday&amp;nbsp; &amp;nbsp;&lt;br&gt;- command" placeholders="1" name="Variable" id="33">
                    <mxCell style="text;html=1;strokeColor=none;fillColor=none;align=center;verticalAlign=middle;whiteSpace=wrap;overflow=hidden;" vertex="1" parent="7">
                        <mxGeometry x="5" y="34" width="80" height="50" as="geometry"/>
                    </mxCell>
                </UserObject>
                <mxCell id="17" style="edgeStyle=elbowEdgeStyle;shape=flexArrow;elbow=vertical;html=1;entryX=0;entryY=0.5;entryDx=0;entryDy=0;strokeColor=default;strokeWidth=1;fillColor=none;exitX=0.5;exitY=0;exitDx=0;exitDy=0;" edge="1" parent="1" source="11" target="6">
                    <mxGeometry relative="1" as="geometry">
                        <Array as="points">
                            <mxPoint x="110" y="325"/>
                        </Array>
                    </mxGeometry>
                </mxCell>
                <mxCell id="11" value="Собаки" style="swimlane;whiteSpace=wrap;html=1;startSize=30;" vertex="1" parent="1">
                    <mxGeometry x="90" y="410" width="90" height="90" as="geometry"/>
                </mxCell>
                <UserObject label="- name&amp;nbsp; &amp;nbsp; &amp;nbsp;&amp;nbsp;&lt;br&gt;- birthday&amp;nbsp; &amp;nbsp;&lt;br&gt;- command" placeholders="1" name="Variable" id="34">
                    <mxCell style="text;html=1;strokeColor=none;fillColor=none;align=center;verticalAlign=middle;whiteSpace=wrap;overflow=hidden;" vertex="1" parent="11">
                        <mxGeometry x="5" y="34" width="80" height="50" as="geometry"/>
                    </mxCell>
                </UserObject>
                <mxCell id="18" style="edgeStyle=elbowEdgeStyle;shape=flexArrow;elbow=vertical;html=1;entryX=0.5;entryY=1;entryDx=0;entryDy=0;strokeColor=default;strokeWidth=1;fillColor=none;" edge="1" parent="1" source="12" target="6">
                    <mxGeometry relative="1" as="geometry"/>
                </mxCell>
                <mxCell id="12" value="Кошки" style="swimlane;whiteSpace=wrap;html=1;startSize=30;" vertex="1" parent="1">
                    <mxGeometry x="190" y="410" width="90" height="90" as="geometry"/>
                </mxCell>
                <UserObject label="- name&amp;nbsp; &amp;nbsp; &amp;nbsp;&amp;nbsp;&lt;br&gt;- birthday&amp;nbsp; &amp;nbsp;&lt;br&gt;- command" placeholders="1" name="Variable" id="35">
                    <mxCell style="text;html=1;strokeColor=none;fillColor=none;align=center;verticalAlign=middle;whiteSpace=wrap;overflow=hidden;" vertex="1" parent="12">
                        <mxGeometry x="5" y="34" width="80" height="50" as="geometry"/>
                    </mxCell>
                </UserObject>
                <mxCell id="19" style="edgeStyle=elbowEdgeStyle;shape=flexArrow;elbow=vertical;html=1;entryX=1;entryY=0.5;entryDx=0;entryDy=0;strokeColor=default;strokeWidth=1;fillColor=none;exitX=0.5;exitY=0;exitDx=0;exitDy=0;" edge="1" parent="1" source="13" target="6">
                    <mxGeometry relative="1" as="geometry">
                        <Array as="points">
                            <mxPoint x="370" y="325"/>
                        </Array>
                    </mxGeometry>
                </mxCell>
                <mxCell id="13" value="Хомяки" style="swimlane;whiteSpace=wrap;html=1;startSize=30;" vertex="1" parent="1">
                    <mxGeometry x="290" y="410" width="90" height="90" as="geometry"/>
                </mxCell>
                <UserObject label="- name&amp;nbsp; &amp;nbsp; &amp;nbsp;&amp;nbsp;&lt;br&gt;- birthday&amp;nbsp; &amp;nbsp;&lt;br&gt;- command" placeholders="1" name="Variable" id="36">
                    <mxCell style="text;html=1;strokeColor=none;fillColor=none;align=center;verticalAlign=middle;whiteSpace=wrap;overflow=hidden;" vertex="1" parent="13">
                        <mxGeometry x="5" y="34" width="80" height="50" as="geometry"/>
                    </mxCell>
                </UserObject>
                <mxCell id="20" style="edgeStyle=elbowEdgeStyle;shape=flexArrow;elbow=vertical;html=1;entryX=0;entryY=0.5;entryDx=0;entryDy=0;strokeColor=default;strokeWidth=1;fillColor=none;exitX=0.5;exitY=0;exitDx=0;exitDy=0;" edge="1" parent="1" source="14" target="7">
                    <mxGeometry relative="1" as="geometry">
                        <Array as="points">
                            <mxPoint x="410" y="325"/>
                        </Array>
                    </mxGeometry>
                </mxCell>
                <mxCell id="14" value="Лошади" style="swimlane;whiteSpace=wrap;html=1;startSize=30;" vertex="1" parent="1">
                    <mxGeometry x="390" y="410" width="90" height="90" as="geometry">
                        <mxRectangle x="390" y="410" width="90" height="30" as="alternateBounds"/>
                    </mxGeometry>
                </mxCell>
                <UserObject label="- name&amp;nbsp; &amp;nbsp; &amp;nbsp;&amp;nbsp;&lt;br&gt;- birthday&amp;nbsp; &amp;nbsp;&lt;br&gt;- command" placeholders="1" name="Variable" id="37">
                    <mxCell style="text;html=1;strokeColor=none;fillColor=none;align=center;verticalAlign=middle;whiteSpace=wrap;overflow=hidden;" vertex="1" parent="14">
                        <mxGeometry x="5" y="34" width="80" height="50" as="geometry"/>
                    </mxCell>
                </UserObject>
                <mxCell id="21" style="edgeStyle=elbowEdgeStyle;shape=flexArrow;elbow=vertical;html=1;entryX=0.5;entryY=1;entryDx=0;entryDy=0;strokeColor=default;strokeWidth=1;fillColor=none;" edge="1" parent="1" source="15" target="7">
                    <mxGeometry relative="1" as="geometry"/>
                </mxCell>
                <mxCell id="15" value="Верблюды" style="swimlane;whiteSpace=wrap;html=1;startSize=30;" vertex="1" parent="1">
                    <mxGeometry x="490" y="410" width="90" height="90" as="geometry"/>
                </mxCell>
                <UserObject label="- name&amp;nbsp; &amp;nbsp; &amp;nbsp;&amp;nbsp;&lt;br&gt;- birthday&amp;nbsp; &amp;nbsp;&lt;br&gt;- command" placeholders="1" name="Variable" id="38">
                    <mxCell style="text;html=1;strokeColor=none;fillColor=none;align=center;verticalAlign=middle;whiteSpace=wrap;overflow=hidden;" vertex="1" parent="15">
                        <mxGeometry x="5" y="34" width="80" height="50" as="geometry"/>
                    </mxCell>
                </UserObject>
                <mxCell id="22" style="edgeStyle=elbowEdgeStyle;shape=flexArrow;elbow=vertical;html=1;entryX=1;entryY=0.5;entryDx=0;entryDy=0;strokeColor=default;strokeWidth=1;fillColor=none;exitX=0.5;exitY=0;exitDx=0;exitDy=0;" edge="1" parent="1" source="16" target="7">
                    <mxGeometry relative="1" as="geometry">
                        <Array as="points">
                            <mxPoint x="650" y="325"/>
                        </Array>
                    </mxGeometry>
                </mxCell>
                <mxCell id="16" value="Ослы" style="swimlane;whiteSpace=wrap;html=1;startSize=30;" vertex="1" parent="1">
                    <mxGeometry x="590" y="410" width="90" height="90" as="geometry"/>
                </mxCell>
                <UserObject label="- name&amp;nbsp; &amp;nbsp; &amp;nbsp;&amp;nbsp;&lt;br&gt;- birthday&amp;nbsp; &amp;nbsp;&lt;br&gt;- command" placeholders="1" name="Variable" id="39">
                    <mxCell style="text;html=1;strokeColor=none;fillColor=none;align=center;verticalAlign=middle;whiteSpace=wrap;overflow=hidden;" vertex="1" parent="16">
                        <mxGeometry x="5" y="34" width="80" height="50" as="geometry"/>
                    </mxCell>
                </UserObject>
            </root>
        </mxGraphModel>
    </diagram>
</mxfile>